<mxfile host="app.diagrams.net" modified="2023-12-11T16:47:25.324Z" agent="Mozilla/5.0 (Windows NT 10.0; Win64; x64) AppleWebKit/537.36 (KHTML, like Gecko) Chrome/120.0.0.0 Safari/537.36" etag="Fy9jyLhbKnDhFydYLMsZ" version="21.6.6" type="github">
  <diagram name="Page-1" id="91nHhhE3s5nTpRTvgLdf">
    <mxGraphModel dx="9243" dy="3593" grid="1" gridSize="10" guides="1" tooltips="1" connect="1" arrows="1" fold="1" page="1" pageScale="1" pageWidth="850" pageHeight="1100" math="0" shadow="0">
      <root>
        <mxCell id="0" />
        <mxCell id="1" parent="0" />
        <mxCell id="ovAAudWtLkYD1-Wf8aJe-1" value="AWS Cloud" style="points=[[0,0],[0.25,0],[0.5,0],[0.75,0],[1,0],[1,0.25],[1,0.5],[1,0.75],[1,1],[0.75,1],[0.5,1],[0.25,1],[0,1],[0,0.75],[0,0.5],[0,0.25]];outlineConnect=0;gradientColor=none;html=1;whiteSpace=wrap;fontSize=12;fontStyle=0;container=1;pointerEvents=0;collapsible=0;recursiveResize=0;shape=mxgraph.aws4.group;grIcon=mxgraph.aws4.group_aws_cloud_alt;strokeColor=#232F3E;fillColor=none;verticalAlign=top;align=left;spacingLeft=30;fontColor=#232F3E;dashed=0;" vertex="1" parent="1">
          <mxGeometry x="-40" y="2010" width="2160" height="1380" as="geometry" />
        </mxCell>
        <mxCell id="ovAAudWtLkYD1-Wf8aJe-2" value="nightly-vpc" style="points=[[0,0],[0.25,0],[0.5,0],[0.75,0],[1,0],[1,0.25],[1,0.5],[1,0.75],[1,1],[0.75,1],[0.5,1],[0.25,1],[0,1],[0,0.75],[0,0.5],[0,0.25]];outlineConnect=0;gradientColor=none;html=1;whiteSpace=wrap;fontSize=12;fontStyle=0;container=1;pointerEvents=0;collapsible=0;recursiveResize=0;shape=mxgraph.aws4.group;grIcon=mxgraph.aws4.group_vpc;strokeColor=#248814;fillColor=none;verticalAlign=top;align=left;spacingLeft=30;fontColor=#AAB7B8;dashed=0;" vertex="1" parent="1">
          <mxGeometry x="20" y="2100" width="1720" height="1240" as="geometry" />
        </mxCell>
        <mxCell id="ovAAudWtLkYD1-Wf8aJe-37" value="" style="group" vertex="1" connectable="0" parent="ovAAudWtLkYD1-Wf8aJe-2">
          <mxGeometry x="560" y="190" width="585" height="900" as="geometry" />
        </mxCell>
        <mxCell id="ovAAudWtLkYD1-Wf8aJe-29" value="Public subnet" style="points=[[0,0],[0.25,0],[0.5,0],[0.75,0],[1,0],[1,0.25],[1,0.5],[1,0.75],[1,1],[0.75,1],[0.5,1],[0.25,1],[0,1],[0,0.75],[0,0.5],[0,0.25]];outlineConnect=0;gradientColor=none;html=1;whiteSpace=wrap;fontSize=12;fontStyle=0;container=1;pointerEvents=0;collapsible=0;recursiveResize=0;shape=mxgraph.aws4.group;grIcon=mxgraph.aws4.group_security_group;grStroke=0;strokeColor=#248814;fillColor=#E9F3E6;verticalAlign=top;align=left;spacingLeft=30;fontColor=#248814;dashed=0;" vertex="1" parent="ovAAudWtLkYD1-Wf8aJe-37">
          <mxGeometry x="122.5" width="300" height="150" as="geometry" />
        </mxCell>
        <mxCell id="ovAAudWtLkYD1-Wf8aJe-30" value="ALB - Web" style="outlineConnect=0;dashed=0;verticalLabelPosition=top;verticalAlign=bottom;align=center;html=1;shape=mxgraph.aws3.application_load_balancer;fillColor=#F58534;gradientColor=none;labelPosition=center;" vertex="1" parent="ovAAudWtLkYD1-Wf8aJe-29">
          <mxGeometry x="38" y="49" width="69" height="72" as="geometry" />
        </mxCell>
        <mxCell id="ovAAudWtLkYD1-Wf8aJe-31" value="ALB - API" style="outlineConnect=0;dashed=0;verticalLabelPosition=top;verticalAlign=bottom;align=center;html=1;shape=mxgraph.aws3.application_load_balancer;fillColor=#F58534;gradientColor=none;labelPosition=center;" vertex="1" parent="ovAAudWtLkYD1-Wf8aJe-29">
          <mxGeometry x="190" y="49" width="69" height="72" as="geometry" />
        </mxCell>
        <mxCell id="ovAAudWtLkYD1-Wf8aJe-5" value="Private subnet" style="points=[[0,0],[0.25,0],[0.5,0],[0.75,0],[1,0],[1,0.25],[1,0.5],[1,0.75],[1,1],[0.75,1],[0.5,1],[0.25,1],[0,1],[0,0.75],[0,0.5],[0,0.25]];outlineConnect=0;gradientColor=none;html=1;whiteSpace=wrap;fontSize=12;fontStyle=0;container=1;pointerEvents=0;collapsible=0;recursiveResize=0;shape=mxgraph.aws4.group;grIcon=mxgraph.aws4.group_security_group;grStroke=0;strokeColor=#147EBA;fillColor=#E6F2F8;verticalAlign=top;align=left;spacingLeft=30;fontColor=#147EBA;dashed=0;" vertex="1" parent="ovAAudWtLkYD1-Wf8aJe-37">
          <mxGeometry y="290" width="585" height="610" as="geometry" />
        </mxCell>
        <mxCell id="ovAAudWtLkYD1-Wf8aJe-16" value="" style="group" vertex="1" connectable="0" parent="ovAAudWtLkYD1-Wf8aJe-5">
          <mxGeometry x="15" y="60" width="229.5" height="239.5" as="geometry" />
        </mxCell>
        <mxCell id="ovAAudWtLkYD1-Wf8aJe-17" value="ECS service" style="sketch=0;outlineConnect=0;fontColor=#232F3E;gradientColor=none;strokeColor=#ffffff;fillColor=#232F3E;dashed=0;verticalLabelPosition=middle;verticalAlign=bottom;align=center;html=1;whiteSpace=wrap;fontSize=10;fontStyle=1;spacing=3;shape=mxgraph.aws4.productIcon;prIcon=mxgraph.aws4.ecs;" vertex="1" parent="ovAAudWtLkYD1-Wf8aJe-16">
          <mxGeometry width="80" height="100" as="geometry" />
        </mxCell>
        <mxCell id="ovAAudWtLkYD1-Wf8aJe-18" value="" style="rounded=1;arcSize=10;dashed=1;fillColor=none;gradientColor=none;dashPattern=8 3 1 3;strokeWidth=2;" vertex="1" parent="ovAAudWtLkYD1-Wf8aJe-16">
          <mxGeometry x="30" y="40" width="199.5" height="199.5" as="geometry" />
        </mxCell>
        <mxCell id="ovAAudWtLkYD1-Wf8aJe-19" value="AWS Fargate" style="sketch=0;outlineConnect=0;fontColor=#232F3E;gradientColor=none;strokeColor=#ffffff;fillColor=#232F3E;dashed=0;verticalLabelPosition=middle;verticalAlign=bottom;align=center;html=1;whiteSpace=wrap;fontSize=10;fontStyle=1;spacing=3;shape=mxgraph.aws4.productIcon;prIcon=mxgraph.aws4.fargate;" vertex="1" parent="ovAAudWtLkYD1-Wf8aJe-16">
          <mxGeometry x="107.25" y="50" width="45" height="60" as="geometry" />
        </mxCell>
        <mxCell id="ovAAudWtLkYD1-Wf8aJe-20" value="Backend task/container" style="sketch=0;outlineConnect=0;fontColor=#232F3E;gradientColor=none;fillColor=#D45B07;strokeColor=none;dashed=0;verticalLabelPosition=bottom;verticalAlign=top;align=center;html=1;fontSize=12;fontStyle=0;aspect=fixed;pointerEvents=1;shape=mxgraph.aws4.container_1;" vertex="1" parent="ovAAudWtLkYD1-Wf8aJe-16">
          <mxGeometry x="104.25" y="140" width="48" height="31" as="geometry" />
        </mxCell>
        <mxCell id="ovAAudWtLkYD1-Wf8aJe-15" value="" style="group" vertex="1" connectable="0" parent="ovAAudWtLkYD1-Wf8aJe-5">
          <mxGeometry x="275" y="60" width="229.5" height="239.5" as="geometry" />
        </mxCell>
        <mxCell id="ovAAudWtLkYD1-Wf8aJe-12" value="ECS service" style="sketch=0;outlineConnect=0;fontColor=#232F3E;gradientColor=none;strokeColor=#ffffff;fillColor=#232F3E;dashed=0;verticalLabelPosition=middle;verticalAlign=bottom;align=center;html=1;whiteSpace=wrap;fontSize=10;fontStyle=1;spacing=3;shape=mxgraph.aws4.productIcon;prIcon=mxgraph.aws4.ecs;" vertex="1" parent="ovAAudWtLkYD1-Wf8aJe-15">
          <mxGeometry width="80" height="100" as="geometry" />
        </mxCell>
        <mxCell id="ovAAudWtLkYD1-Wf8aJe-14" value="" style="rounded=1;arcSize=10;dashed=1;fillColor=none;gradientColor=none;dashPattern=8 3 1 3;strokeWidth=2;" vertex="1" parent="ovAAudWtLkYD1-Wf8aJe-15">
          <mxGeometry x="30" y="40" width="199.5" height="199.5" as="geometry" />
        </mxCell>
        <mxCell id="ovAAudWtLkYD1-Wf8aJe-9" value="AWS Fargate" style="sketch=0;outlineConnect=0;fontColor=#232F3E;gradientColor=none;strokeColor=#ffffff;fillColor=#232F3E;dashed=0;verticalLabelPosition=middle;verticalAlign=bottom;align=center;html=1;whiteSpace=wrap;fontSize=10;fontStyle=1;spacing=3;shape=mxgraph.aws4.productIcon;prIcon=mxgraph.aws4.fargate;" vertex="1" parent="ovAAudWtLkYD1-Wf8aJe-15">
          <mxGeometry x="107.25" y="50" width="45" height="60" as="geometry" />
        </mxCell>
        <mxCell id="ovAAudWtLkYD1-Wf8aJe-10" value="Frontend task/container" style="sketch=0;outlineConnect=0;fontColor=#232F3E;gradientColor=none;fillColor=#D45B07;strokeColor=none;dashed=0;verticalLabelPosition=bottom;verticalAlign=top;align=center;html=1;fontSize=12;fontStyle=0;aspect=fixed;pointerEvents=1;shape=mxgraph.aws4.container_1;" vertex="1" parent="ovAAudWtLkYD1-Wf8aJe-15">
          <mxGeometry x="104.25" y="140" width="48" height="31" as="geometry" />
        </mxCell>
        <mxCell id="ovAAudWtLkYD1-Wf8aJe-22" style="edgeStyle=orthogonalEdgeStyle;rounded=0;orthogonalLoop=1;jettySize=auto;html=1;startArrow=classic;startFill=1;" edge="1" parent="ovAAudWtLkYD1-Wf8aJe-5" source="ovAAudWtLkYD1-Wf8aJe-21" target="ovAAudWtLkYD1-Wf8aJe-18">
          <mxGeometry relative="1" as="geometry" />
        </mxCell>
        <mxCell id="ovAAudWtLkYD1-Wf8aJe-23" value="5432" style="edgeLabel;html=1;align=center;verticalAlign=middle;resizable=0;points=[];" vertex="1" connectable="0" parent="ovAAudWtLkYD1-Wf8aJe-22">
          <mxGeometry x="-0.0361" relative="1" as="geometry">
            <mxPoint as="offset" />
          </mxGeometry>
        </mxCell>
        <mxCell id="ovAAudWtLkYD1-Wf8aJe-21" value="RDS" style="sketch=0;outlineConnect=0;fontColor=#232F3E;gradientColor=none;fillColor=#2E27AD;strokeColor=none;dashed=0;verticalLabelPosition=bottom;verticalAlign=top;align=center;html=1;fontSize=12;fontStyle=0;aspect=fixed;pointerEvents=1;shape=mxgraph.aws4.rds_multi_az;" vertex="1" parent="ovAAudWtLkYD1-Wf8aJe-5">
          <mxGeometry x="195" y="400" width="188.28" height="140" as="geometry" />
        </mxCell>
        <mxCell id="ovAAudWtLkYD1-Wf8aJe-24" style="edgeStyle=orthogonalEdgeStyle;rounded=0;orthogonalLoop=1;jettySize=auto;html=1;startArrow=classic;startFill=1;dashed=1;" edge="1" parent="ovAAudWtLkYD1-Wf8aJe-5" source="ovAAudWtLkYD1-Wf8aJe-20" target="ovAAudWtLkYD1-Wf8aJe-10">
          <mxGeometry relative="1" as="geometry" />
        </mxCell>
        <mxCell id="ovAAudWtLkYD1-Wf8aJe-25" value="Service discovery?" style="edgeLabel;html=1;align=center;verticalAlign=middle;resizable=0;points=[];" vertex="1" connectable="0" parent="ovAAudWtLkYD1-Wf8aJe-24">
          <mxGeometry x="-0.0493" relative="1" as="geometry">
            <mxPoint x="-1" as="offset" />
          </mxGeometry>
        </mxCell>
        <mxCell id="ovAAudWtLkYD1-Wf8aJe-32" style="edgeStyle=orthogonalEdgeStyle;rounded=0;orthogonalLoop=1;jettySize=auto;html=1;startArrow=classic;startFill=1;" edge="1" parent="ovAAudWtLkYD1-Wf8aJe-37" source="ovAAudWtLkYD1-Wf8aJe-20" target="ovAAudWtLkYD1-Wf8aJe-30">
          <mxGeometry relative="1" as="geometry" />
        </mxCell>
        <mxCell id="ovAAudWtLkYD1-Wf8aJe-34" value="Target group" style="edgeLabel;html=1;align=center;verticalAlign=middle;resizable=0;points=[];" vertex="1" connectable="0" parent="ovAAudWtLkYD1-Wf8aJe-32">
          <mxGeometry x="0.5426" relative="1" as="geometry">
            <mxPoint as="offset" />
          </mxGeometry>
        </mxCell>
        <mxCell id="ovAAudWtLkYD1-Wf8aJe-33" style="edgeStyle=orthogonalEdgeStyle;rounded=0;orthogonalLoop=1;jettySize=auto;html=1;startArrow=classic;startFill=1;" edge="1" parent="ovAAudWtLkYD1-Wf8aJe-37" source="ovAAudWtLkYD1-Wf8aJe-10" target="ovAAudWtLkYD1-Wf8aJe-31">
          <mxGeometry relative="1" as="geometry" />
        </mxCell>
        <mxCell id="ovAAudWtLkYD1-Wf8aJe-35" value="Target group" style="edgeLabel;html=1;align=center;verticalAlign=middle;resizable=0;points=[];" vertex="1" connectable="0" parent="ovAAudWtLkYD1-Wf8aJe-33">
          <mxGeometry x="0.5431" y="1" relative="1" as="geometry">
            <mxPoint as="offset" />
          </mxGeometry>
        </mxCell>
        <mxCell id="ovAAudWtLkYD1-Wf8aJe-39" value="NAT gateway" style="sketch=0;outlineConnect=0;fontColor=#232F3E;gradientColor=none;strokeColor=#232F3E;fillColor=#ffffff;dashed=0;verticalLabelPosition=bottom;verticalAlign=top;align=center;html=1;fontSize=12;fontStyle=0;aspect=fixed;shape=mxgraph.aws4.resourceIcon;resIcon=mxgraph.aws4.nat_gateway;" vertex="1" parent="ovAAudWtLkYD1-Wf8aJe-2">
          <mxGeometry x="1255" y="690" width="190" height="190" as="geometry" />
        </mxCell>
        <mxCell id="ovAAudWtLkYD1-Wf8aJe-40" style="edgeStyle=orthogonalEdgeStyle;rounded=0;orthogonalLoop=1;jettySize=auto;html=1;" edge="1" parent="ovAAudWtLkYD1-Wf8aJe-2" source="ovAAudWtLkYD1-Wf8aJe-5" target="ovAAudWtLkYD1-Wf8aJe-39">
          <mxGeometry relative="1" as="geometry" />
        </mxCell>
        <mxCell id="ovAAudWtLkYD1-Wf8aJe-41" value="ECR" style="sketch=0;points=[[0,0,0],[0.25,0,0],[0.5,0,0],[0.75,0,0],[1,0,0],[0,1,0],[0.25,1,0],[0.5,1,0],[0.75,1,0],[1,1,0],[0,0.25,0],[0,0.5,0],[0,0.75,0],[1,0.25,0],[1,0.5,0],[1,0.75,0]];outlineConnect=0;fontColor=#232F3E;gradientColor=#F78E04;gradientDirection=north;fillColor=#D05C17;strokeColor=#ffffff;dashed=0;verticalLabelPosition=bottom;verticalAlign=top;align=center;html=1;fontSize=12;fontStyle=0;aspect=fixed;shape=mxgraph.aws4.resourceIcon;resIcon=mxgraph.aws4.ecr;" vertex="1" parent="1">
          <mxGeometry x="1940" y="2900" width="78" height="78" as="geometry" />
        </mxCell>
        <mxCell id="ovAAudWtLkYD1-Wf8aJe-42" style="edgeStyle=orthogonalEdgeStyle;rounded=0;orthogonalLoop=1;jettySize=auto;html=1;entryX=0;entryY=0.5;entryDx=0;entryDy=0;entryPerimeter=0;" edge="1" parent="1" source="ovAAudWtLkYD1-Wf8aJe-39" target="ovAAudWtLkYD1-Wf8aJe-41">
          <mxGeometry relative="1" as="geometry" />
        </mxCell>
        <mxCell id="ovAAudWtLkYD1-Wf8aJe-43" value="S3" style="sketch=0;points=[[0,0,0],[0.25,0,0],[0.5,0,0],[0.75,0,0],[1,0,0],[0,1,0],[0.25,1,0],[0.5,1,0],[0.75,1,0],[1,1,0],[0,0.25,0],[0,0.5,0],[0,0.75,0],[1,0.25,0],[1,0.5,0],[1,0.75,0]];outlineConnect=0;fontColor=#232F3E;gradientColor=#60A337;gradientDirection=north;fillColor=#277116;strokeColor=#ffffff;dashed=0;verticalLabelPosition=bottom;verticalAlign=top;align=center;html=1;fontSize=12;fontStyle=0;aspect=fixed;shape=mxgraph.aws4.resourceIcon;resIcon=mxgraph.aws4.s3;" vertex="1" parent="1">
          <mxGeometry x="1940" y="2780" width="78" height="78" as="geometry" />
        </mxCell>
        <mxCell id="ovAAudWtLkYD1-Wf8aJe-44" style="edgeStyle=orthogonalEdgeStyle;rounded=0;orthogonalLoop=1;jettySize=auto;html=1;entryX=0;entryY=0.5;entryDx=0;entryDy=0;entryPerimeter=0;" edge="1" parent="1" source="ovAAudWtLkYD1-Wf8aJe-39" target="ovAAudWtLkYD1-Wf8aJe-43">
          <mxGeometry relative="1" as="geometry" />
        </mxCell>
        <mxCell id="ovAAudWtLkYD1-Wf8aJe-38" value="Internet&#xa;gateway" style="sketch=0;outlineConnect=0;fontColor=#232F3E;gradientColor=none;strokeColor=#232F3E;fillColor=#ffffff;dashed=0;verticalLabelPosition=bottom;verticalAlign=top;align=center;html=1;fontSize=12;fontStyle=0;aspect=fixed;shape=mxgraph.aws4.resourceIcon;resIcon=mxgraph.aws4.internet_gateway;" vertex="1" parent="1">
          <mxGeometry x="782.5" y="2030" width="140" height="140" as="geometry" />
        </mxCell>
        <mxCell id="ovAAudWtLkYD1-Wf8aJe-45" style="edgeStyle=orthogonalEdgeStyle;rounded=0;orthogonalLoop=1;jettySize=auto;html=1;" edge="1" parent="1" source="ovAAudWtLkYD1-Wf8aJe-29" target="ovAAudWtLkYD1-Wf8aJe-38">
          <mxGeometry relative="1" as="geometry" />
        </mxCell>
      </root>
    </mxGraphModel>
  </diagram>
</mxfile>
